<svg width="16" height="19" fill="none" xmlns="http://www.w3.org/2000/svg"><path d="M0 16.571c0 .947.768 1.715 1.714 1.715h12.572c.946 0 1.714-.768 1.714-1.715V6.857H0v9.714zm11.429-7a.43.43 0 01.428-.428h1.429a.43.43 0 01.428.428V11a.43.43 0 01-.428.429h-1.429A.43.43 0 0111.43 11V9.571zm0 4.572a.43.43 0 01.428-.429h1.429a.43.43 0 01.428.429v1.428a.43.43 0 01-.428.429h-1.429a.43.43 0 01-.428-.429v-1.428zM6.857 9.57a.43.43 0 01.429-.428h1.428a.43.43 0 01.429.428V11a.43.43 0 01-.429.429H7.286A.43.43 0 016.857 11V9.571zm0 4.572a.43.43 0 01.429-.429h1.428a.43.43 0 01.429.429v1.428a.43.43 0 01-.429.429H7.286a.43.43 0 01-.429-.429v-1.428zM2.286 9.57a.43.43 0 01.428-.428h1.429a.43.43 0 01.428.428V11a.43.43 0 01-.428.429H2.714A.43.43 0 012.286 11V9.571zm0 4.572a.43.43 0 01.428-.429h1.429a.43.43 0 01.428.429v1.428a.43.43 0 01-.428.429H2.714a.43.43 0 01-.428-.429v-1.428zm12-11.857H12.57V.57A.573.573 0 0012 0h-1.143a.573.573 0 00-.571.571v1.715H5.714V.57A.573.573 0 005.143 0H4a.573.573 0 00-.571.571v1.715H1.714C.768 2.286 0 3.054 0 4v1.714h16V4c0-.946-.768-1.714-1.714-1.714z" fill="#9DB367"/></svg>