<svg width="25" height="21" fill="none" xmlns="http://www.w3.org/2000/svg"><path d="M21.988 4.455l-.335.244.03.415c.013.19.013.386.013.613 0 6.45-4.906 13.828-13.828 13.828-1.715 0-3.354-.31-4.865-.877 1.884-.3 3.61-1.075 5.058-2.209l1.653-1.296-2.1-.044a4.391 4.391 0 01-3.59-1.98 6.203 6.203 0 001.288-.193l-.04-1.46a4.379 4.379 0 01-3.365-3.18 5.89 5.89 0 001.396.222l2.654.1-2.21-1.473a4.37 4.37 0 01-1.95-3.643c0-.422.058-.823.166-1.203A15.319 15.319 0 0012.27 7.047l.972.05-.198-.952a5.037 5.037 0 01-.111-1.021A4.371 4.371 0 0117.306.75c1.262 0 2.398.528 3.197 1.38l.282.302.406-.077c.388-.075.77-.17 1.145-.286a4.426 4.426 0 01-.671.491l.465 1.39c.196-.021.392-.048.585-.08-.233.206-.476.401-.727.585z" stroke="#EAFB81" stroke-width="1.5"/></svg>