<svg width="22" height="22" fill="none" xmlns="http://www.w3.org/2000/svg"><path d="M18.599 3.179A10.758 10.758 0 0010.933 0C4.956 0 .093 4.863.093 10.84c0 1.909.498 3.774 1.445 5.42L0 21.875l5.747-1.509a10.806 10.806 0 005.18 1.319h.006c5.971 0 10.942-4.864 10.942-10.84 0-2.896-1.23-5.616-3.276-7.666zm-7.666 16.68a8.994 8.994 0 01-4.59-1.256l-.327-.195-3.409.894.909-3.325-.215-.342a8.98 8.98 0 01-1.377-4.795c0-4.966 4.043-9.009 9.013-9.009a8.93 8.93 0 016.368 2.642c1.699 1.704 2.744 3.965 2.739 6.372 0 4.97-4.146 9.013-9.111 9.013zm4.941-6.749c-.269-.136-1.601-.79-1.85-.879-.25-.092-.43-.136-.61.137-.182.274-.7.88-.86 1.065-.156.18-.318.205-.586.068-1.592-.796-2.637-1.42-3.687-3.223-.278-.478.279-.444.796-1.48.088-.18.044-.336-.024-.473-.069-.137-.61-1.47-.835-2.012-.22-.527-.445-.454-.61-.463-.157-.01-.337-.01-.518-.01-.18 0-.474.068-.723.337-.249.273-.947.927-.947 2.26 0 1.334.972 2.623 1.103 2.803.137.18 1.91 2.915 4.63 4.092 1.718.742 2.392.806 3.251.679.523-.078 1.602-.655 1.826-1.29.225-.634.225-1.176.157-1.288-.064-.123-.244-.19-.513-.323z" fill="#EAFB81"/></svg>