<svg width="25" height="25" fill="none" xmlns="http://www.w3.org/2000/svg"><path d="M23.469 12.11c0 5.363-3.718 9.86-8.718 11.05v-6.8h2.715l.098-.636.537-3.5.133-.865h-3.482V9.836c0-.37.091-.642.24-.814.13-.15.394-.327.983-.327h2.277V4.334l-.624-.107-.126.74.126-.74h0-.006l-.014-.003-.05-.008a21.017 21.017 0 00-.829-.112 17.45 17.45 0 00-1.938-.124c-1.535 0-2.886.468-3.855 1.438-.97.97-1.469 2.357-1.469 4.023v1.918H6.391v5h3.076v6.801C4.468 21.97.75 17.473.75 12.11.75 5.833 5.834.75 12.11.75c6.275 0 11.359 5.084 11.359 11.36z" stroke="#EAFB81" stroke-width="1.5"/></svg>